PathFileType	4	(X/Y/Z)	C:/Users/beibeiliu/ov580/test_trc\sequence.18_training_dense_left.trc
DataRate	CameraRate	NumFrames	NumMarkers	Units	OrigDataRate	OrigDataStartFrame	OrigNumFrames
120	120	10	19	mm	120	127	336
Frame#	Time	ThumbCMC			ThumbMCP			ThumbIP			ThumbTip			IndexMCP			IndexPIP			IndexTip			MiddleMCP			MiddlePIP			MiddleTip			RingMCP			RingPIP			RingTip			PinkyMCP			PinkyPIP			PinkyTip			BackHand1			BackHand2			BackHand3	
		X0	Y0	Z0	X1	Y1	Z1	X2	Y2	Z2	X3	Y3	Z3	X4	Y4	Z4	X5	Y5	Z5	X6	Y6	Z6	X7	Y7	Z7	X8	Y8	Z8	X9	Y9	Z9	X10	Y10	Z10	X11	Y11	Z11	X12	Y12	Z12	X13	Y13	Z13	X14	Y14	Z14	X15	Y15	Z15	X16	Y16	Z16	X17	Y17	Z17	X18	Y18	Z18	
126	1.05	-217.773	14.6185	32.4082	-211.446	19.3218	9.59058	-204.858	33.7807	-12.9759	-205.843	39.3957	-32.7483	-261.084	61.3379	3.45913	-264.405	64.7038	-22.4639	-250.221	36.7084	-32.2322	-280.025	48.8895	2.77865	-281.46	54.7232	-27.0223	-260.782	28.6449	-30.7369	-293.374	36.7854	0.81396	-287.493	35.278	-23.4454	-269.093	15.9142	-25.1599	-297.548	14.1135	9.24049	-296.93	25.8867	-12.4919	-279.152	12.8968	-28.6519	-274.993	14.6248	38.467	-260.72	-4.35998	57.5103	-250.25	21.715	47.5279	
127	1.05833	-218.027	14.3296	33.9123	-206.624	19.3931	8.76783	-206.457	30.2267	-11.253	-204.315	40.5396	-35.7958	-259.44	61.0112	3.75888	-260.921	66.989	-21.3943	-247.421	38.9917	-32.6357	-276.21	57.0491	-0.225276	-278.06	54.917	-28.1944	-259.091	27.9201	-28.286	-288.978	40.7354	1.61727	-287.077	38.8542	-23.2104	-264.474	17.9207	-22.3085	-296.992	18.8856	8.58757	-298.942	27.4474	-15.0033	-277.893	17.3458	-29.3164	-271.425	14.0623	40.5269	-264.314	2.1339	56.6161	-250.741	23.0312	47.0244	
128	1.06667	-218.026	12.8098	34.3338	-207.328	18.4142	8.74617	-204.823	30.1264	-12.1013	-202.414	36.4243	-32.264	-254.681	60.3934	6.00291	-257.931	67.7597	-22.3131	-243.183	47.2012	-33.1456	-274.562	58.6967	-1.01873	-273.525	59.4254	-29.3225	-259.061	30.2403	-28.6095	-287.435	45.5408	1.16083	-284.404	45.2268	-22.7426	-264.739	20.6503	-23.1861	-291.754	23.3026	9.08915	-294.985	32.6625	-16.3716	-273.215	20.3678	-29.2669	-272.642	17.7231	37.696	-264.669	1.75207	58.2127	-245.702	23.0797	49.6623	
129	1.075	-216.288	12.2687	33.6104	-207.954	17.3889	7.60909	-203.609	30.9932	-13.8179	-203.266	35.1956	-30.2737	-246.094	62.6309	6.30141	-251.171	69.55	-23.6144	-239.693	48.0902	-33.8331	-270.607	59.0508	0.889617	-268.503	61.6803	-28.8943	-255.494	32.6632	-29.6922	-283.194	48.6505	1.72579	-280.91	49.1023	-23.8314	-265.006	24.9827	-25.6908	-291.675	28.8596	7.88995	-288.02	38.5444	-16.3941	-269.831	23.4826	-30.6735	-270.437	20.9899	38.7294	-262.092	6.08791	57.6799	-242.537	26.0328	46.9306	
130	1.08333	-215.602	12.5947	32.114	-204.755	19.1993	6.1401	-200.681	28.4936	-13.964	-198.727	35.7988	-33.4717	-239.84	63.8408	5.74439	-247.774	71.7805	-22.7983	-237.675	44.8787	-34.0428	-261.07	64.4976	0.366289	-263.656	66.627	-28.3028	-251.907	37.184	-30.9816	-277.758	50.2018	5.31513	-271.069	54.3554	-24.2701	-260.447	27.7482	-26.2944	-284.578	36.2365	5.41919	-281.097	42.6101	-16.2786	-268.054	24.5507	-30.1257	-270.064	27.4101	37.1293	-261.917	7.69841	55.098	-239.879	24.8859	48.5306	
131	1.09167	-215.941	9.15536	32.0795	-205.123	15.5558	6.01366	-197.797	24.2581	-12.3753	-197.765	32.4876	-33.8865	-237.008	66.1986	3.18951	-241.894	75.0131	-21.1728	-238	48.5127	-35.2906	-257.103	68.5562	-0.648462	-258.452	68.7676	-29.6302	-250.417	36.0842	-30.4325	-273.038	55.962	2.71756	-271.747	58.0719	-25.1724	-263.3	32.5003	-29.4337	-279.462	40.1126	5.50509	-279.625	45.1729	-18.3518	-267.506	24.7703	-33.431	-267.943	27.4833	37.48	-259.066	12.5834	56.2451	-238.843	25.1513	47.3924	
132	1.1	-214.06	10.1654	30.3563	-200.641	14.1516	3.80478	-195.53	24.8104	-14.5752	-193.688	30.177	-33.218	-233.329	65.374	2.67097	-239.34	74.3924	-23.5901	-233.35	49.7341	-37.6795	-251.677	71.2528	-2.43274	-255.555	70.1513	-30.4719	-247.648	36.9481	-31.1428	-264.507	61.8189	1.35986	-266.607	60.4993	-26.187	-257.158	36.0152	-30.3192	-276.05	44.8887	4.81781	-274.09	49.0654	-20.0568	-266.031	28.0526	-32.0671	-261.972	32.6093	34.0797	-256.69	12.4196	57.1668	-234.008	31.3475	43.6042	
133	1.10833	-209.782	9.41494	28.6095	-199.675	10.8391	5.76982	-195.599	21.8418	-14.4448	-191.045	31.7014	-37.1503	-225.564	65.4482	2.64091	-232.655	75.0499	-23.4269	-229.22	48.2938	-38.3566	-246.602	71.4968	-1.78819	-246.215	74.0041	-30.7463	-246.764	41.6697	-34.3483	-265.508	61.5477	3.27933	-260.865	65.2968	-24.4496	-254.58	36.5935	-30.0262	-277.238	48.9435	4.96304	-275.286	54.8229	-19.2374	-264.156	36.6414	-31.6442	-259.104	33.3958	38.4667	-256.379	16.0254	56.0392	-233.581	29.1055	45.1696	
134	1.11667	-212.007	5.64085	29.8597	-202.043	13.2308	3.12101	-194.83	22.0776	-15.1461	-190.862	28.764	-35.0575	-222.132	65.3758	1.83088	-222.19	73.9389	-27.9422	-227.227	49.6475	-38.5251	-238.933	72.9187	-2.48184	-243.594	77.2153	-30.3114	-238.651	42.709	-34.5954	-260.318	65.1136	1.60444	-256.084	66.7258	-26.7984	-254.797	36.8991	-31.2098	-274.013	56.0564	3.92962	-267.61	58.6974	-20.2274	-259.754	39.1676	-32.6132	-257.687	38.0761	32.88	-253.483	22.4821	53.4201	-229.424	31.8701	43.5536	
135	1.125	-211.515	3.76548	31.5206	-200.013	7.80097	5.37453	-192.744	19.2831	-16.2055	-185.836	24.8472	-36.1561	-218.44	67.8875	-2.58141	-222.977	72.1148	-29.0295	-225.605	45.3806	-39.0033	-235.604	72.8571	-3.83611	-236.974	76.9525	-31.5499	-240.899	40.4835	-34.0965	-251.668	68.0823	-2.16192	-254.922	66.6237	-30.1624	-250.219	39.1672	-32.9771	-269.716	53.6757	5.67184	-268.08	62.1498	-20.7328	-261.353	43.5556	-35.1778	-253.567	39.1376	34.3148	-257.579	24.1932	51.2814	-228.293	30.9194	42.6117	
